<?xml version="1.0" standalone="no"?>
<!DOCTYPE svg PUBLIC "-//W3C//DTD SVG 20010904//EN"
 "http://www.w3.org/TR/2001/REC-SVG-20010904/DTD/svg10.dtd">
<svg version="1.0" xmlns="http://www.w3.org/2000/svg"
 width="764.000000pt" height="764.000000pt" viewBox="0 0 764.000000 764.000000"
 preserveAspectRatio="xMidYMid meet">
<metadata>
Created by potrace 1.14, written by Peter Selinger 2001-2017
</metadata>
<g transform="translate(0.000000,764.000000) scale(0.100000,-0.100000)"
fill="#000000" stroke="none">
<path d="M3210 6617 c0 -7 -12 -42 -26 -78 -14 -35 -27 -68 -28 -74 -4 -13
-10 -30 -52 -138 -19 -48 -34 -94 -34 -101 0 -13 -37 -30 -86 -40 -87 -18
-221 -50 -279 -67 -83 -23 -99 -28 -122 -33 -25 -6 -204 -65 -228 -75 -11 -5
-47 -19 -80 -32 -58 -21 -82 -31 -189 -78 l-50 -22 -30 34 c-62 68 -69 70
-381 70 -325 0 -358 -3 -407 -43 -69 -57 -72 -73 -72 -372 l-1 -266 -85 -84
c-47 -47 -104 -105 -127 -131 -59 -66 -194 -247 -223 -299 -75 -137 -97 -180
-127 -258 -52 -132 -79 -249 -89 -384 -2 -33 -13 -95 -25 -136 -28 -101 -69
-277 -75 -320 -2 -19 -9 -60 -14 -90 -11 -65 -20 -167 -24 -270 -2 -41 -7 -95
-11 -120 -4 -25 -9 -56 -10 -70 -2 -14 -6 -40 -9 -57 -8 -45 -14 -80 -21 -133
-3 -25 -8 -52 -10 -60 -2 -8 -7 -37 -10 -65 -6 -52 -12 -90 -15 -90 -1 0 -3
-13 -5 -30 -6 -50 -22 -154 -32 -210 -5 -29 -9 -58 -12 -82 0 -6 -12 -24 -25
-40 -48 -57 -154 -262 -160 -309 -2 -21 -7 -46 -10 -54 -16 -47 -28 -200 -20
-253 7 -43 30 -62 84 -71 48 -7 83 -17 97 -29 7 -5 13 -7 13 -4 0 3 51 -13
113 -35 61 -22 137 -49 167 -60 30 -11 71 -27 90 -35 19 -8 44 -19 55 -23 11
-4 61 -24 110 -43 219 -86 382 -150 410 -163 35 -15 77 -31 87 -33 6 -2 57
-23 143 -60 11 -5 65 -27 120 -50 100 -40 108 -41 315 -56 47 -3 112 -8 145
-11 94 -8 154 -12 261 -19 101 -6 193 -12 319 -20 39 -2 124 -7 190 -10 66 -4
149 -8 185 -10 304 -16 481 -20 920 -19 278 0 577 3 665 8 88 4 196 9 240 11
44 2 127 6 185 10 58 3 141 8 185 10 76 4 169 10 315 21 36 3 103 7 150 9 47
2 85 5 85 5 0 2 65 7 160 14 199 14 236 19 325 48 52 17 99 34 104 39 6 5 16
9 23 9 7 0 98 34 201 75 103 42 192 77 197 78 6 2 20 9 33 15 12 7 22 10 22 6
0 -3 7 0 16 7 9 7 21 14 28 15 12 2 240 95 293 119 17 8 36 15 42 15 6 0 19 4
29 10 18 10 209 89 217 89 3 1 20 7 38 14 37 15 159 53 199 61 43 10 59 52 55
145 -2 43 -7 83 -11 90 -4 6 -5 15 -2 20 3 5 2 22 -4 37 -5 16 -11 43 -14 59
-9 53 -14 69 -44 125 -41 77 -46 87 -86 155 -33 58 -40 78 -50 156 -7 47 -16
109 -22 139 -3 14 -7 41 -10 60 -9 70 -19 134 -29 195 -3 17 -8 48 -11 70 -3
22 -10 63 -15 90 -6 28 -13 109 -15 180 -3 125 -11 247 -19 310 -2 17 -6 46
-8 65 -3 19 -8 55 -12 80 -8 57 -85 370 -96 391 -4 9 -11 54 -14 100 -6 100
-23 183 -60 299 -29 91 -101 246 -141 305 -13 20 -24 38 -24 41 0 11 -124 178
-184 249 -33 39 -106 116 -164 172 l-104 102 -1 263 -2 263 -29 42 c-17 26
-46 51 -73 64 -44 21 -58 22 -322 22 -357 0 -372 -2 -434 -69 l-24 -25 -64 29
c-35 16 -91 39 -124 51 -33 13 -69 27 -80 31 -22 9 -134 50 -150 54 -5 2 -23
6 -40 10 -16 4 -39 11 -50 16 -20 9 -48 17 -82 25 -10 2 -54 14 -98 26 -87 23
-107 28 -145 35 -36 6 -122 25 -143 31 -15 4 -57 78 -57 100 0 7 -26 75 -61
158 -29 70 -59 153 -59 163 0 9 -154 12 -625 12 -509 0 -625 -2 -625 -13z"/>
</g>
</svg>
