<?xml version="1.0" encoding="UTF-8"?>
<svg id="Layer_2" data-name="Layer 2" xmlns="http://www.w3.org/2000/svg" viewBox="0 0 190.67 140.47">
  <defs>
    <style>
      .cls-1 {
        fill: #b68b35;
      }

      .cls-1, .cls-2 {
        opacity: .3;
        stroke-width: 0px;
      }

      .cls-3 {
        stroke: #ebb244;
      }

      .cls-3, .cls-4 {
        fill: #ebb245;
      }

      .cls-3, .cls-4, .cls-5 {
        stroke-miterlimit: 10;
      }

      .cls-6 {
        fill: #231f20;
        font-family: Verdana, Verdana;
        font-size: 12px;
      }

      .cls-2 {
        fill: #fecf99;
      }

      .cls-7 {
        letter-spacing: -.05em;
      }

      .cls-4 {
        stroke: #ebb245;
      }

      .cls-5 {
        fill: #d7a43f;
        stroke: #d7a43e;
      }
    </style>
  </defs>
  <g id="Layer_1-2" data-name="Layer 1">
    <g>
      <polyline class="cls-4" points="174.06 104.42 182.42 88.05 185.8 109.72"/>
      <polygon class="cls-4" points="9.32 84.14 5.93 105.8 17.68 100.5 9.32 84.14"/>
      <path class="cls-4" d="M178.68,63.41c1.37,4.3,8.81,27.71-2.98,41.3-11.67,13.46-30.37,3.63-79.96,3.92-49.34.29-67.61,10.24-79.46-2.99-12.42-13.85-4.67-38.44-3.48-42.23C23.06,30.82,60.68,9.5,95.74,9.5c35.19,0,72.63,21.47,82.94,53.91Z"/>
      <path class="cls-4" d="M178.68,63.41c0,24.97-37.14,45.22-82.94,45.22S12.79,88.38,12.79,63.41,49.93,9.5,95.74,9.5s82.94,28.94,82.94,53.91Z"/>
      <rect class="cls-4" x="80.68" y=".5" width="30.11" height="54.78"/>
      <rect class="cls-4" x="80.68" y=".5" width="30.11" height="54.78" rx="3.89" ry="3.89"/>
      <path class="cls-4" d="M79.75,2.99v52.29h-19.84c6.61-17.43,13.22-34.86,19.84-52.29Z"/>
      <path class="cls-3" d="M111.65,2.8c0,17.43,0,34.86,0,52.29,6.72,0,13.44,0,20.16,0-6.72-17.43-13.44-34.86-20.16-52.29Z"/>
      <path class="cls-1" d="M128.43,46.15c-.48-11.99-2.26-15.86-5.3-28.32-1.14-4.64-4.84-7-8.11-7.16,4.47,11.83,8.94,23.65,13.41,35.48Z"/>
      <path class="cls-2" d="M63.13,46.15c.48-11.99,2.26-15.86,5.3-28.32,1.14-4.64,4.84-7,8.11-7.16-4.47,11.83-8.94,23.65-13.41,35.48Z"/>
      <rect class="cls-4" x="140.08" y="16.65" width="21.6" height="54.78" rx="4.22" ry="4.22"/>
      <rect class="cls-4" x="29.09" y="16.65" width="21.6" height="54.78" rx="4.22" ry="4.22"/>
      <path class="cls-1" d="M50.69,56.92c4.1-11.27,3.92-15.53,5.83-28.22.7-4.72-1.82-8.31-4.79-9.69-.35,12.64-.69,25.28-1.04,37.92Z"/>
      <path class="cls-1" d="M161.68,71.44c4.1-11.27,3.92-15.53,5.83-28.22.7-4.72-1.82-8.31-4.79-9.69-.35,12.64-.69,25.28-1.04,37.92Z"/>
      <path class="cls-2" d="M138.47,56.91c-3.3-11.53-2.82-15.77-3.85-28.56-.37-4.76,2.4-8.17,5.45-9.34-.54,12.63-1.07,25.26-1.61,37.9Z"/>
      <path class="cls-2" d="M27.48,71.43c-3.3-11.53-2.82-15.77-3.85-28.56-.37-4.76,2.4-8.17,5.45-9.34-.54,12.63-1.07,25.26-1.61,37.9Z"/>
      <path class="cls-5" d="M13.93,102.54s-6.77-.28-10.04,6.08-2.1,3.86-2.1,3.86c0,0-2.74,10.45-.2,10.22s29.66,10.99,38.31,14.49c0,0,71.71,6.08,71.77.23h0v-34.89H13.93Z"/>
      <path class="cls-4" d="M144.26,79.68H46.54s-6.77-.28-10.04,6.09"/>
      <path class="cls-5" d="M176.73,102.54s6.77-.28,10.04,6.08c3.27,6.37,2.1,3.86,2.1,3.86,0,0,2.74,10.45.2,10.22s-30.45,12.39-38.31,14.49c0,0-71.71,6.08-71.77.23h0v-34.89h97.72Z"/>
      <text class="cls-6" transform="translate(64.43 62.91)"><tspan class="cls-7" x="0" y="0">W</tspan><tspan x="11.28" y="0">ebScapes </tspan><tspan x="0" y="14.4">Design Inc.</tspan></text>
    </g>
  </g>
</svg>